ISO-10303-21;
HEADER;
/* Generated by software containing ST-Developer
 * from STEP Tools, Inc. (www.steptools.com) 
 */

FILE_DESCRIPTION(
/* description */ (''),
/* implementation_level */ '2;1');

FILE_NAME(
/* name */ 'hackpad_assembly.step',
/* time_stamp */ '2026-08-31T20:55:07-04:00',
/* author */ (''),
/* organization */ (''),
/* preprocessor_version */ 'ST-DEVELOPER v20.1',
/* originating_system */ 'Autodesk Translation Framework v15.8.0.0',
/* authorisation */ '');

FILE_SCHEMA (('AUTOMOTIVE_DESIGN { 1 0 10303 214 3 1 1 }'));
ENDSEC;

DATA;
#10=MECHANICAL_DESIGN_GEOMETRIC_PRESENTATION_REPRESENTATION('',(#13),#812);
#11=SHAPE_REPRESENTATION_RELATIONSHIP('SRR','None',#819,#12);
#12=ADVANCED_BREP_SHAPE_REPRESENTATION('',(#14),#811);
#13=STYLED_ITEM('',(#828),#14);
#14=MANIFOLD_SOLID_BREP('Body1',#492);
#15=FACE_BOUND('',#169,.T.);
#16=FACE_BOUND('',#170,.T.);
#17=FACE_BOUND('',#171,.T.);
#18=FACE_BOUND('',#172,.T.);
#19=FACE_BOUND('',#174,.T.);
#20=FACE_BOUND('',#179,.T.);
#21=FACE_BOUND('',#181,.T.);
#22=FACE_BOUND('',#186,.T.);
#23=FACE_BOUND('',#187,.T.);
#24=FACE_BOUND('',#188,.T.);
#25=FACE_BOUND('',#189,.T.);
#26=FACE_BOUND('',#190,.T.);
#27=CYLINDRICAL_SURFACE('',#516,1.45);
#28=CYLINDRICAL_SURFACE('',#527,1.45);
#29=CYLINDRICAL_SURFACE('',#529,1.45);
#30=CYLINDRICAL_SURFACE('',#531,1.45);
#31=CYLINDRICAL_SURFACE('',#533,1.45);
#32=LINE('',#687,#83);
#33=LINE('',#690,#84);
#34=LINE('',#692,#85);
#35=LINE('',#693,#86);
#36=LINE('',#699,#87);
#37=LINE('',#701,#88);
#38=LINE('',#703,#89);
#39=LINE('',#704,#90);
#40=LINE('',#707,#91);
#41=LINE('',#712,#92);
#42=LINE('',#714,#93);
#43=LINE('',#716,#94);
#44=LINE('',#717,#95);
#45=LINE('',#727,#96);
#46=LINE('',#729,#97);
#47=LINE('',#731,#98);
#48=LINE('',#732,#99);
#49=LINE('',#735,#100);
#50=LINE('',#737,#101);
#51=LINE('',#739,#102);
#52=LINE('',#740,#103);
#53=LINE('',#742,#104);
#54=LINE('',#743,#105);
#55=LINE('',#745,#106);
#56=LINE('',#747,#107);
#57=LINE('',#750,#108);
#58=LINE('',#752,#109);
#59=LINE('',#753,#110);
#60=LINE('',#757,#111);
#61=LINE('',#761,#112);
#62=LINE('',#765,#113);
#63=LINE('',#769,#114);
#64=LINE('',#773,#115);
#65=LINE('',#775,#116);
#66=LINE('',#777,#117);
#67=LINE('',#778,#118);
#68=LINE('',#781,#119);
#69=LINE('',#783,#120);
#70=LINE('',#785,#121);
#71=LINE('',#786,#122);
#72=LINE('',#788,#123);
#73=LINE('',#789,#124);
#74=LINE('',#791,#125);
#75=LINE('',#793,#126);
#76=LINE('',#797,#127);
#77=LINE('',#799,#128);
#78=LINE('',#800,#129);
#79=LINE('',#802,#130);
#80=LINE('',#803,#131);
#81=LINE('',#805,#132);
#82=LINE('',#807,#133);
#83=VECTOR('',#559,10.);
#84=VECTOR('',#562,10.);
#85=VECTOR('',#563,10.);
#86=VECTOR('',#564,10.);
#87=VECTOR('',#571,10.);
#88=VECTOR('',#572,10.);
#89=VECTOR('',#573,10.);
#90=VECTOR('',#574,10.);
#91=VECTOR('',#577,1.45);
#92=VECTOR('',#582,10.);
#93=VECTOR('',#583,10.);
#94=VECTOR('',#584,10.);
#95=VECTOR('',#585,10.);
#96=VECTOR('',#594,10.);
#97=VECTOR('',#595,10.);
#98=VECTOR('',#596,10.);
#99=VECTOR('',#597,10.);
#100=VECTOR('',#598,10.);
#101=VECTOR('',#599,10.);
#102=VECTOR('',#600,10.);
#103=VECTOR('',#601,10.);
#104=VECTOR('',#604,10.);
#105=VECTOR('',#605,10.);
#106=VECTOR('',#608,10.);
#107=VECTOR('',#611,10.);
#108=VECTOR('',#614,10.);
#109=VECTOR('',#615,10.);
#110=VECTOR('',#616,10.);
#111=VECTOR('',#621,1.45);
#112=VECTOR('',#626,1.45);
#113=VECTOR('',#631,1.45);
#114=VECTOR('',#636,1.45);
#115=VECTOR('',#639,10.);
#116=VECTOR('',#640,10.);
#117=VECTOR('',#641,10.);
#118=VECTOR('',#642,10.);
#119=VECTOR('',#643,10.);
#120=VECTOR('',#644,10.);
#121=VECTOR('',#645,10.);
#122=VECTOR('',#646,10.);
#123=VECTOR('',#649,10.);
#124=VECTOR('',#650,10.);
#125=VECTOR('',#653,10.);
#126=VECTOR('',#656,10.);
#127=VECTOR('',#661,10.);
#128=VECTOR('',#662,10.);
#129=VECTOR('',#663,10.);
#130=VECTOR('',#666,10.);
#131=VECTOR('',#667,10.);
#132=VECTOR('',#670,10.);
#133=VECTOR('',#673,10.);
#134=FACE_OUTER_BOUND('',#161,.T.);
#135=FACE_OUTER_BOUND('',#162,.T.);
#136=FACE_OUTER_BOUND('',#163,.T.);
#137=FACE_OUTER_BOUND('',#164,.T.);
#138=FACE_OUTER_BOUND('',#165,.T.);
#139=FACE_OUTER_BOUND('',#166,.T.);
#140=FACE_OUTER_BOUND('',#167,.T.);
#141=FACE_OUTER_BOUND('',#168,.T.);
#142=FACE_OUTER_BOUND('',#173,.T.);
#143=FACE_OUTER_BOUND('',#175,.T.);
#144=FACE_OUTER_BOUND('',#176,.T.);
#145=FACE_OUTER_BOUND('',#177,.T.);
#146=FACE_OUTER_BOUND('',#178,.T.);
#147=FACE_OUTER_BOUND('',#180,.T.);
#148=FACE_OUTER_BOUND('',#182,.T.);
#149=FACE_OUTER_BOUND('',#183,.T.);
#150=FACE_OUTER_BOUND('',#184,.T.);
#151=FACE_OUTER_BOUND('',#185,.T.);
#152=FACE_OUTER_BOUND('',#191,.T.);
#153=FACE_OUTER_BOUND('',#192,.T.);
#154=FACE_OUTER_BOUND('',#193,.T.);
#155=FACE_OUTER_BOUND('',#194,.T.);
#156=FACE_OUTER_BOUND('',#195,.T.);
#157=FACE_OUTER_BOUND('',#196,.T.);
#158=FACE_OUTER_BOUND('',#197,.T.);
#159=FACE_OUTER_BOUND('',#198,.T.);
#160=FACE_OUTER_BOUND('',#199,.T.);
#161=EDGE_LOOP('',(#317));
#162=EDGE_LOOP('',(#318));
#163=EDGE_LOOP('',(#319,#320));
#164=EDGE_LOOP('',(#321,#322,#323,#324));
#165=EDGE_LOOP('',(#325,#326));
#166=EDGE_LOOP('',(#327,#328,#329,#330));
#167=EDGE_LOOP('',(#331,#332,#333,#334));
#168=EDGE_LOOP('',(#335,#336,#337,#338));
#169=EDGE_LOOP('',(#339));
#170=EDGE_LOOP('',(#340));
#171=EDGE_LOOP('',(#341));
#172=EDGE_LOOP('',(#342));
#173=EDGE_LOOP('',(#343,#344,#345,#346));
#174=EDGE_LOOP('',(#347,#348,#349,#350));
#175=EDGE_LOOP('',(#351,#352,#353,#354));
#176=EDGE_LOOP('',(#355,#356,#357,#358));
#177=EDGE_LOOP('',(#359,#360,#361,#362));
#178=EDGE_LOOP('',(#363,#364,#365,#366));
#179=EDGE_LOOP('',(#367,#368,#369,#370));
#180=EDGE_LOOP('',(#371,#372,#373,#374));
#181=EDGE_LOOP('',(#375,#376,#377,#378));
#182=EDGE_LOOP('',(#379,#380,#381,#382));
#183=EDGE_LOOP('',(#383,#384,#385,#386));
#184=EDGE_LOOP('',(#387,#388,#389,#390));
#185=EDGE_LOOP('',(#391,#392,#393,#394));
#186=EDGE_LOOP('',(#395,#396,#397,#398));
#187=EDGE_LOOP('',(#399));
#188=EDGE_LOOP('',(#400));
#189=EDGE_LOOP('',(#401));
#190=EDGE_LOOP('',(#402));
#191=EDGE_LOOP('',(#403,#404,#405,#406));
#192=EDGE_LOOP('',(#407,#408,#409,#410));
#193=EDGE_LOOP('',(#411,#412,#413,#414));
#194=EDGE_LOOP('',(#415,#416,#417,#418));
#195=EDGE_LOOP('',(#419,#420,#421,#422));
#196=EDGE_LOOP('',(#423,#424,#425,#426,#427,#428));
#197=EDGE_LOOP('',(#429,#430,#431,#432));
#198=EDGE_LOOP('',(#433,#434,#435,#436));
#199=EDGE_LOOP('',(#437,#438,#439,#440,#441,#442));
#200=CIRCLE('',#507,1.45);
#201=CIRCLE('',#509,1.45);
#202=CIRCLE('',#511,1.45);
#203=CIRCLE('',#514,1.45);
#204=CIRCLE('',#517,1.45);
#205=CIRCLE('',#519,1.45);
#206=CIRCLE('',#520,1.45);
#207=CIRCLE('',#521,1.45);
#208=CIRCLE('',#528,1.45);
#209=CIRCLE('',#530,1.45);
#210=CIRCLE('',#532,1.45);
#211=CIRCLE('',#534,1.45);
#212=VERTEX_POINT('',#678);
#213=VERTEX_POINT('',#681);
#214=VERTEX_POINT('',#684);
#215=VERTEX_POINT('',#685);
#216=VERTEX_POINT('',#689);
#217=VERTEX_POINT('',#691);
#218=VERTEX_POINT('',#697);
#219=VERTEX_POINT('',#698);
#220=VERTEX_POINT('',#700);
#221=VERTEX_POINT('',#702);
#222=VERTEX_POINT('',#706);
#223=VERTEX_POINT('',#710);
#224=VERTEX_POINT('',#711);
#225=VERTEX_POINT('',#713);
#226=VERTEX_POINT('',#715);
#227=VERTEX_POINT('',#718);
#228=VERTEX_POINT('',#720);
#229=VERTEX_POINT('',#722);
#230=VERTEX_POINT('',#725);
#231=VERTEX_POINT('',#726);
#232=VERTEX_POINT('',#728);
#233=VERTEX_POINT('',#730);
#234=VERTEX_POINT('',#733);
#235=VERTEX_POINT('',#734);
#236=VERTEX_POINT('',#736);
#237=VERTEX_POINT('',#738);
#238=VERTEX_POINT('',#749);
#239=VERTEX_POINT('',#751);
#240=VERTEX_POINT('',#755);
#241=VERTEX_POINT('',#759);
#242=VERTEX_POINT('',#763);
#243=VERTEX_POINT('',#767);
#244=VERTEX_POINT('',#771);
#245=VERTEX_POINT('',#772);
#246=VERTEX_POINT('',#774);
#247=VERTEX_POINT('',#776);
#248=VERTEX_POINT('',#779);
#249=VERTEX_POINT('',#780);
#250=VERTEX_POINT('',#782);
#251=VERTEX_POINT('',#784);
#252=VERTEX_POINT('',#796);
#253=VERTEX_POINT('',#798);
#254=EDGE_CURVE('',#212,#212,#200,.T.);
#255=EDGE_CURVE('',#213,#213,#201,.T.);
#256=EDGE_CURVE('',#214,#215,#202,.T.);
#257=EDGE_CURVE('',#215,#214,#32,.T.);
#258=EDGE_CURVE('',#215,#216,#33,.T.);
#259=EDGE_CURVE('',#217,#214,#34,.T.);
#260=EDGE_CURVE('',#216,#217,#35,.T.);
#261=EDGE_CURVE('',#216,#217,#203,.T.);
#262=EDGE_CURVE('',#218,#219,#36,.T.);
#263=EDGE_CURVE('',#220,#219,#37,.T.);
#264=EDGE_CURVE('',#220,#221,#38,.T.);
#265=EDGE_CURVE('',#218,#221,#39,.T.);
#266=EDGE_CURVE('',#213,#222,#40,.T.);
#267=EDGE_CURVE('',#222,#222,#204,.T.);
#268=EDGE_CURVE('',#223,#224,#41,.T.);
#269=EDGE_CURVE('',#224,#225,#42,.T.);
#270=EDGE_CURVE('',#225,#226,#43,.T.);
#271=EDGE_CURVE('',#226,#223,#44,.T.);
#272=EDGE_CURVE('',#227,#227,#205,.T.);
#273=EDGE_CURVE('',#228,#228,#206,.T.);
#274=EDGE_CURVE('',#229,#229,#207,.T.);
#275=EDGE_CURVE('',#230,#231,#45,.T.);
#276=EDGE_CURVE('',#231,#232,#46,.T.);
#277=EDGE_CURVE('',#232,#233,#47,.T.);
#278=EDGE_CURVE('',#233,#230,#48,.T.);
#279=EDGE_CURVE('',#234,#235,#49,.T.);
#280=EDGE_CURVE('',#235,#236,#50,.T.);
#281=EDGE_CURVE('',#236,#237,#51,.T.);
#282=EDGE_CURVE('',#237,#234,#52,.T.);
#283=EDGE_CURVE('',#223,#231,#53,.T.);
#284=EDGE_CURVE('',#224,#230,#54,.T.);
#285=EDGE_CURVE('',#226,#232,#55,.T.);
#286=EDGE_CURVE('',#225,#233,#56,.T.);
#287=EDGE_CURVE('',#219,#238,#57,.T.);
#288=EDGE_CURVE('',#238,#239,#58,.T.);
#289=EDGE_CURVE('',#239,#220,#59,.T.);
#290=EDGE_CURVE('',#240,#240,#208,.T.);
#291=EDGE_CURVE('',#240,#229,#60,.T.);
#292=EDGE_CURVE('',#241,#241,#209,.T.);
#293=EDGE_CURVE('',#241,#228,#61,.T.);
#294=EDGE_CURVE('',#242,#242,#210,.T.);
#295=EDGE_CURVE('',#242,#212,#62,.T.);
#296=EDGE_CURVE('',#243,#243,#211,.T.);
#297=EDGE_CURVE('',#243,#227,#63,.T.);
#298=EDGE_CURVE('',#244,#245,#64,.T.);
#299=EDGE_CURVE('',#245,#246,#65,.T.);
#300=EDGE_CURVE('',#246,#247,#66,.T.);
#301=EDGE_CURVE('',#247,#244,#67,.T.);
#302=EDGE_CURVE('',#248,#249,#68,.T.);
#303=EDGE_CURVE('',#249,#250,#69,.T.);
#304=EDGE_CURVE('',#250,#251,#70,.T.);
#305=EDGE_CURVE('',#251,#248,#71,.T.);
#306=EDGE_CURVE('',#237,#245,#72,.T.);
#307=EDGE_CURVE('',#234,#244,#73,.T.);
#308=EDGE_CURVE('',#236,#246,#74,.T.);
#309=EDGE_CURVE('',#235,#247,#75,.T.);
#310=EDGE_CURVE('',#252,#238,#76,.T.);
#311=EDGE_CURVE('',#253,#252,#77,.T.);
#312=EDGE_CURVE('',#239,#253,#78,.T.);
#313=EDGE_CURVE('',#248,#218,#79,.T.);
#314=EDGE_CURVE('',#251,#252,#80,.T.);
#315=EDGE_CURVE('',#221,#249,#81,.T.);
#316=EDGE_CURVE('',#250,#253,#82,.T.);
#317=ORIENTED_EDGE('',*,*,#254,.F.);
#318=ORIENTED_EDGE('',*,*,#255,.F.);
#319=ORIENTED_EDGE('',*,*,#256,.F.);
#320=ORIENTED_EDGE('',*,*,#257,.F.);
#321=ORIENTED_EDGE('',*,*,#258,.F.);
#322=ORIENTED_EDGE('',*,*,#257,.T.);
#323=ORIENTED_EDGE('',*,*,#259,.F.);
#324=ORIENTED_EDGE('',*,*,#260,.F.);
#325=ORIENTED_EDGE('',*,*,#261,.F.);
#326=ORIENTED_EDGE('',*,*,#260,.T.);
#327=ORIENTED_EDGE('',*,*,#262,.T.);
#328=ORIENTED_EDGE('',*,*,#263,.F.);
#329=ORIENTED_EDGE('',*,*,#264,.T.);
#330=ORIENTED_EDGE('',*,*,#265,.F.);
#331=ORIENTED_EDGE('',*,*,#255,.T.);
#332=ORIENTED_EDGE('',*,*,#266,.T.);
#333=ORIENTED_EDGE('',*,*,#267,.F.);
#334=ORIENTED_EDGE('',*,*,#266,.F.);
#335=ORIENTED_EDGE('',*,*,#268,.T.);
#336=ORIENTED_EDGE('',*,*,#269,.T.);
#337=ORIENTED_EDGE('',*,*,#270,.T.);
#338=ORIENTED_EDGE('',*,*,#271,.T.);
#339=ORIENTED_EDGE('',*,*,#272,.T.);
#340=ORIENTED_EDGE('',*,*,#267,.T.);
#341=ORIENTED_EDGE('',*,*,#273,.T.);
#342=ORIENTED_EDGE('',*,*,#274,.T.);
#343=ORIENTED_EDGE('',*,*,#275,.T.);
#344=ORIENTED_EDGE('',*,*,#276,.T.);
#345=ORIENTED_EDGE('',*,*,#277,.T.);
#346=ORIENTED_EDGE('',*,*,#278,.T.);
#347=ORIENTED_EDGE('',*,*,#279,.T.);
#348=ORIENTED_EDGE('',*,*,#280,.T.);
#349=ORIENTED_EDGE('',*,*,#281,.T.);
#350=ORIENTED_EDGE('',*,*,#282,.T.);
#351=ORIENTED_EDGE('',*,*,#268,.F.);
#352=ORIENTED_EDGE('',*,*,#283,.T.);
#353=ORIENTED_EDGE('',*,*,#275,.F.);
#354=ORIENTED_EDGE('',*,*,#284,.F.);
#355=ORIENTED_EDGE('',*,*,#271,.F.);
#356=ORIENTED_EDGE('',*,*,#285,.T.);
#357=ORIENTED_EDGE('',*,*,#276,.F.);
#358=ORIENTED_EDGE('',*,*,#283,.F.);
#359=ORIENTED_EDGE('',*,*,#270,.F.);
#360=ORIENTED_EDGE('',*,*,#286,.T.);
#361=ORIENTED_EDGE('',*,*,#277,.F.);
#362=ORIENTED_EDGE('',*,*,#285,.F.);
#363=ORIENTED_EDGE('',*,*,#269,.F.);
#364=ORIENTED_EDGE('',*,*,#284,.T.);
#365=ORIENTED_EDGE('',*,*,#278,.F.);
#366=ORIENTED_EDGE('',*,*,#286,.F.);
#367=ORIENTED_EDGE('',*,*,#287,.T.);
#368=ORIENTED_EDGE('',*,*,#288,.T.);
#369=ORIENTED_EDGE('',*,*,#289,.T.);
#370=ORIENTED_EDGE('',*,*,#263,.T.);
#371=ORIENTED_EDGE('',*,*,#290,.F.);
#372=ORIENTED_EDGE('',*,*,#291,.T.);
#373=ORIENTED_EDGE('',*,*,#274,.F.);
#374=ORIENTED_EDGE('',*,*,#291,.F.);
#375=ORIENTED_EDGE('',*,*,#261,.T.);
#376=ORIENTED_EDGE('',*,*,#259,.T.);
#377=ORIENTED_EDGE('',*,*,#256,.T.);
#378=ORIENTED_EDGE('',*,*,#258,.T.);
#379=ORIENTED_EDGE('',*,*,#292,.F.);
#380=ORIENTED_EDGE('',*,*,#293,.T.);
#381=ORIENTED_EDGE('',*,*,#273,.F.);
#382=ORIENTED_EDGE('',*,*,#293,.F.);
#383=ORIENTED_EDGE('',*,*,#294,.F.);
#384=ORIENTED_EDGE('',*,*,#295,.T.);
#385=ORIENTED_EDGE('',*,*,#254,.T.);
#386=ORIENTED_EDGE('',*,*,#295,.F.);
#387=ORIENTED_EDGE('',*,*,#296,.F.);
#388=ORIENTED_EDGE('',*,*,#297,.T.);
#389=ORIENTED_EDGE('',*,*,#272,.F.);
#390=ORIENTED_EDGE('',*,*,#297,.F.);
#391=ORIENTED_EDGE('',*,*,#298,.T.);
#392=ORIENTED_EDGE('',*,*,#299,.T.);
#393=ORIENTED_EDGE('',*,*,#300,.T.);
#394=ORIENTED_EDGE('',*,*,#301,.T.);
#395=ORIENTED_EDGE('',*,*,#302,.T.);
#396=ORIENTED_EDGE('',*,*,#303,.T.);
#397=ORIENTED_EDGE('',*,*,#304,.T.);
#398=ORIENTED_EDGE('',*,*,#305,.T.);
#399=ORIENTED_EDGE('',*,*,#292,.T.);
#400=ORIENTED_EDGE('',*,*,#294,.T.);
#401=ORIENTED_EDGE('',*,*,#296,.T.);
#402=ORIENTED_EDGE('',*,*,#290,.T.);
#403=ORIENTED_EDGE('',*,*,#282,.F.);
#404=ORIENTED_EDGE('',*,*,#306,.T.);
#405=ORIENTED_EDGE('',*,*,#298,.F.);
#406=ORIENTED_EDGE('',*,*,#307,.F.);
#407=ORIENTED_EDGE('',*,*,#281,.F.);
#408=ORIENTED_EDGE('',*,*,#308,.T.);
#409=ORIENTED_EDGE('',*,*,#299,.F.);
#410=ORIENTED_EDGE('',*,*,#306,.F.);
#411=ORIENTED_EDGE('',*,*,#280,.F.);
#412=ORIENTED_EDGE('',*,*,#309,.T.);
#413=ORIENTED_EDGE('',*,*,#300,.F.);
#414=ORIENTED_EDGE('',*,*,#308,.F.);
#415=ORIENTED_EDGE('',*,*,#279,.F.);
#416=ORIENTED_EDGE('',*,*,#307,.T.);
#417=ORIENTED_EDGE('',*,*,#301,.F.);
#418=ORIENTED_EDGE('',*,*,#309,.F.);
#419=ORIENTED_EDGE('',*,*,#310,.F.);
#420=ORIENTED_EDGE('',*,*,#311,.F.);
#421=ORIENTED_EDGE('',*,*,#312,.F.);
#422=ORIENTED_EDGE('',*,*,#288,.F.);
#423=ORIENTED_EDGE('',*,*,#313,.F.);
#424=ORIENTED_EDGE('',*,*,#305,.F.);
#425=ORIENTED_EDGE('',*,*,#314,.T.);
#426=ORIENTED_EDGE('',*,*,#310,.T.);
#427=ORIENTED_EDGE('',*,*,#287,.F.);
#428=ORIENTED_EDGE('',*,*,#262,.F.);
#429=ORIENTED_EDGE('',*,*,#265,.T.);
#430=ORIENTED_EDGE('',*,*,#315,.T.);
#431=ORIENTED_EDGE('',*,*,#302,.F.);
#432=ORIENTED_EDGE('',*,*,#313,.T.);
#433=ORIENTED_EDGE('',*,*,#316,.T.);
#434=ORIENTED_EDGE('',*,*,#311,.T.);
#435=ORIENTED_EDGE('',*,*,#314,.F.);
#436=ORIENTED_EDGE('',*,*,#304,.F.);
#437=ORIENTED_EDGE('',*,*,#312,.T.);
#438=ORIENTED_EDGE('',*,*,#316,.F.);
#439=ORIENTED_EDGE('',*,*,#303,.F.);
#440=ORIENTED_EDGE('',*,*,#315,.F.);
#441=ORIENTED_EDGE('',*,*,#264,.F.);
#442=ORIENTED_EDGE('',*,*,#289,.F.);
#443=PLANE('',#506);
#444=PLANE('',#508);
#445=PLANE('',#510);
#446=PLANE('',#512);
#447=PLANE('',#513);
#448=PLANE('',#515);
#449=PLANE('',#518);
#450=PLANE('',#522);
#451=PLANE('',#523);
#452=PLANE('',#524);
#453=PLANE('',#525);
#454=PLANE('',#526);
#455=PLANE('',#535);
#456=PLANE('',#536);
#457=PLANE('',#537);
#458=PLANE('',#538);
#459=PLANE('',#539);
#460=PLANE('',#540);
#461=PLANE('',#541);
#462=PLANE('',#542);
#463=PLANE('',#543);
#464=PLANE('',#544);
#465=ADVANCED_FACE('',(#134),#443,.T.);
#466=ADVANCED_FACE('',(#135),#444,.T.);
#467=ADVANCED_FACE('',(#136),#445,.T.);
#468=ADVANCED_FACE('',(#137),#446,.T.);
#469=ADVANCED_FACE('',(#138),#447,.T.);
#470=ADVANCED_FACE('',(#139),#448,.F.);
#471=ADVANCED_FACE('',(#140),#27,.F.);
#472=ADVANCED_FACE('',(#141,#15,#16,#17,#18),#449,.F.);
#473=ADVANCED_FACE('',(#142,#19),#450,.T.);
#474=ADVANCED_FACE('',(#143),#451,.T.);
#475=ADVANCED_FACE('',(#144),#452,.T.);
#476=ADVANCED_FACE('',(#145),#453,.T.);
#477=ADVANCED_FACE('',(#146,#20),#454,.T.);
#478=ADVANCED_FACE('',(#147,#21),#28,.F.);
#479=ADVANCED_FACE('',(#148),#29,.F.);
#480=ADVANCED_FACE('',(#149),#30,.F.);
#481=ADVANCED_FACE('',(#150),#31,.F.);
#482=ADVANCED_FACE('',(#151,#22,#23,#24,#25,#26),#455,.T.);
#483=ADVANCED_FACE('',(#152),#456,.T.);
#484=ADVANCED_FACE('',(#153),#457,.T.);
#485=ADVANCED_FACE('',(#154),#458,.T.);
#486=ADVANCED_FACE('',(#155),#459,.T.);
#487=ADVANCED_FACE('',(#156),#460,.F.);
#488=ADVANCED_FACE('',(#157),#461,.F.);
#489=ADVANCED_FACE('',(#158),#462,.F.);
#490=ADVANCED_FACE('',(#159),#463,.F.);
#491=ADVANCED_FACE('',(#160),#464,.F.);
#492=CLOSED_SHELL('',(#465,#466,#467,#468,#469,#470,#471,#472,#473,#474,
#475,#476,#477,#478,#479,#480,#481,#482,#483,#484,#485,#486,#487,#488,#489,
#490,#491));
#493=DERIVED_UNIT_ELEMENT(#495,1.);
#494=DERIVED_UNIT_ELEMENT(#814,-3.);
#495=(
MASS_UNIT()
NAMED_UNIT(*)
SI_UNIT(.KILO.,.GRAM.)
);
#496=DERIVED_UNIT((#493,#494));
#497=MEASURE_REPRESENTATION_ITEM('density measure',
POSITIVE_RATIO_MEASURE(7850.),#496);
#498=PROPERTY_DEFINITION_REPRESENTATION(#503,#500);
#499=PROPERTY_DEFINITION_REPRESENTATION(#504,#501);
#500=REPRESENTATION('material name',(#502),#811);
#501=REPRESENTATION('density',(#497),#811);
#502=DESCRIPTIVE_REPRESENTATION_ITEM('Steel','Steel');
#503=PROPERTY_DEFINITION('material property','material name',#821);
#504=PROPERTY_DEFINITION('material property','density of part',#821);
#505=AXIS2_PLACEMENT_3D('',#676,#545,#546);
#506=AXIS2_PLACEMENT_3D('',#677,#547,#548);
#507=AXIS2_PLACEMENT_3D('',#679,#549,#550);
#508=AXIS2_PLACEMENT_3D('',#680,#551,#552);
#509=AXIS2_PLACEMENT_3D('',#682,#553,#554);
#510=AXIS2_PLACEMENT_3D('',#683,#555,#556);
#511=AXIS2_PLACEMENT_3D('',#686,#557,#558);
#512=AXIS2_PLACEMENT_3D('',#688,#560,#561);
#513=AXIS2_PLACEMENT_3D('',#694,#565,#566);
#514=AXIS2_PLACEMENT_3D('',#695,#567,#568);
#515=AXIS2_PLACEMENT_3D('',#696,#569,#570);
#516=AXIS2_PLACEMENT_3D('',#705,#575,#576);
#517=AXIS2_PLACEMENT_3D('',#708,#578,#579);
#518=AXIS2_PLACEMENT_3D('',#709,#580,#581);
#519=AXIS2_PLACEMENT_3D('',#719,#586,#587);
#520=AXIS2_PLACEMENT_3D('',#721,#588,#589);
#521=AXIS2_PLACEMENT_3D('',#723,#590,#591);
#522=AXIS2_PLACEMENT_3D('',#724,#592,#593);
#523=AXIS2_PLACEMENT_3D('',#741,#602,#603);
#524=AXIS2_PLACEMENT_3D('',#744,#606,#607);
#525=AXIS2_PLACEMENT_3D('',#746,#609,#610);
#526=AXIS2_PLACEMENT_3D('',#748,#612,#613);
#527=AXIS2_PLACEMENT_3D('',#754,#617,#618);
#528=AXIS2_PLACEMENT_3D('',#756,#619,#620);
#529=AXIS2_PLACEMENT_3D('',#758,#622,#623);
#530=AXIS2_PLACEMENT_3D('',#760,#624,#625);
#531=AXIS2_PLACEMENT_3D('',#762,#627,#628);
#532=AXIS2_PLACEMENT_3D('',#764,#629,#630);
#533=AXIS2_PLACEMENT_3D('',#766,#632,#633);
#534=AXIS2_PLACEMENT_3D('',#768,#634,#635);
#535=AXIS2_PLACEMENT_3D('',#770,#637,#638);
#536=AXIS2_PLACEMENT_3D('',#787,#647,#648);
#537=AXIS2_PLACEMENT_3D('',#790,#651,#652);
#538=AXIS2_PLACEMENT_3D('',#792,#654,#655);
#539=AXIS2_PLACEMENT_3D('',#794,#657,#658);
#540=AXIS2_PLACEMENT_3D('',#795,#659,#660);
#541=AXIS2_PLACEMENT_3D('',#801,#664,#665);
#542=AXIS2_PLACEMENT_3D('',#804,#668,#669);
#543=AXIS2_PLACEMENT_3D('',#806,#671,#672);
#544=AXIS2_PLACEMENT_3D('',#808,#674,#675);
#545=DIRECTION('axis',(0.,0.,1.));
#546=DIRECTION('refdir',(1.,0.,0.));
#547=DIRECTION('center_axis',(0.,1.,0.));
#548=DIRECTION('ref_axis',(0.,0.,-1.));
#549=DIRECTION('center_axis',(0.,-1.,0.));
#550=DIRECTION('ref_axis',(0.,0.,1.));
#551=DIRECTION('center_axis',(0.,-1.,0.));
#552=DIRECTION('ref_axis',(0.,0.,1.));
#553=DIRECTION('center_axis',(0.,1.,0.));
#554=DIRECTION('ref_axis',(0.,0.,1.));
#555=DIRECTION('center_axis',(0.,-1.,0.));
#556=DIRECTION('ref_axis',(0.,0.,1.));
#557=DIRECTION('center_axis',(0.,1.,0.));
#558=DIRECTION('ref_axis',(0.,0.,1.));
#559=DIRECTION('',(-1.,0.,0.));
#560=DIRECTION('center_axis',(0.,0.,-1.));
#561=DIRECTION('ref_axis',(0.,-1.,0.));
#562=DIRECTION('',(0.,1.,0.));
#563=DIRECTION('',(0.,-1.,0.));
#564=DIRECTION('',(-1.,0.,0.));
#565=DIRECTION('center_axis',(0.,1.,0.));
#566=DIRECTION('ref_axis',(0.,0.,-1.));
#567=DIRECTION('center_axis',(0.,-1.,0.));
#568=DIRECTION('ref_axis',(0.,0.,1.));
#569=DIRECTION('center_axis',(0.,1.,0.));
#570=DIRECTION('ref_axis',(0.,0.,1.));
#571=DIRECTION('',(-1.,0.,0.));
#572=DIRECTION('',(0.,0.,1.));
#573=DIRECTION('',(1.,0.,0.));
#574=DIRECTION('',(0.,0.,-1.));
#575=DIRECTION('center_axis',(0.,-1.,0.));
#576=DIRECTION('ref_axis',(0.,0.,1.));
#577=DIRECTION('',(0.,-1.,0.));
#578=DIRECTION('center_axis',(0.,1.,0.));
#579=DIRECTION('ref_axis',(0.,0.,1.));
#580=DIRECTION('center_axis',(0.,1.,0.));
#581=DIRECTION('ref_axis',(1.,0.,0.));
#582=DIRECTION('',(-1.,0.,0.));
#583=DIRECTION('',(0.,0.,-1.));
#584=DIRECTION('',(1.,0.,0.));
#585=DIRECTION('',(0.,0.,1.));
#586=DIRECTION('center_axis',(0.,1.,0.));
#587=DIRECTION('ref_axis',(0.,0.,1.));
#588=DIRECTION('center_axis',(0.,1.,0.));
#589=DIRECTION('ref_axis',(0.,0.,1.));
#590=DIRECTION('center_axis',(0.,1.,0.));
#591=DIRECTION('ref_axis',(0.,0.,1.));
#592=DIRECTION('center_axis',(0.,1.,0.));
#593=DIRECTION('ref_axis',(0.,0.,1.));
#594=DIRECTION('',(1.,0.,0.));
#595=DIRECTION('',(0.,0.,-1.));
#596=DIRECTION('',(-1.,0.,0.));
#597=DIRECTION('',(0.,0.,1.));
#598=DIRECTION('',(1.,0.,0.));
#599=DIRECTION('',(0.,0.,1.));
#600=DIRECTION('',(-1.,0.,0.));
#601=DIRECTION('',(0.,0.,-1.));
#602=DIRECTION('center_axis',(0.,0.,1.));
#603=DIRECTION('ref_axis',(1.,0.,0.));
#604=DIRECTION('',(0.,1.,0.));
#605=DIRECTION('',(0.,1.,0.));
#606=DIRECTION('center_axis',(1.,0.,0.));
#607=DIRECTION('ref_axis',(0.,0.,-1.));
#608=DIRECTION('',(0.,1.,0.));
#609=DIRECTION('center_axis',(0.,0.,-1.));
#610=DIRECTION('ref_axis',(-1.,0.,0.));
#611=DIRECTION('',(0.,1.,0.));
#612=DIRECTION('center_axis',(-1.,0.,0.));
#613=DIRECTION('ref_axis',(0.,0.,1.));
#614=DIRECTION('',(0.,-1.,0.));
#615=DIRECTION('',(0.,0.,-1.));
#616=DIRECTION('',(0.,1.,0.));
#617=DIRECTION('center_axis',(0.,-1.,0.));
#618=DIRECTION('ref_axis',(0.,0.,1.));
#619=DIRECTION('center_axis',(0.,-1.,0.));
#620=DIRECTION('ref_axis',(-1.,0.,0.));
#621=DIRECTION('',(0.,-1.,0.));
#622=DIRECTION('center_axis',(0.,-1.,0.));
#623=DIRECTION('ref_axis',(0.,0.,1.));
#624=DIRECTION('center_axis',(0.,-1.,0.));
#625=DIRECTION('ref_axis',(-1.,0.,0.));
#626=DIRECTION('',(0.,-1.,0.));
#627=DIRECTION('center_axis',(0.,-1.,0.));
#628=DIRECTION('ref_axis',(0.,0.,1.));
#629=DIRECTION('center_axis',(0.,-1.,0.));
#630=DIRECTION('ref_axis',(-1.,0.,0.));
#631=DIRECTION('',(0.,-1.,0.));
#632=DIRECTION('center_axis',(0.,-1.,0.));
#633=DIRECTION('ref_axis',(0.,0.,1.));
#634=DIRECTION('center_axis',(0.,-1.,0.));
#635=DIRECTION('ref_axis',(-1.,0.,0.));
#636=DIRECTION('',(0.,-1.,0.));
#637=DIRECTION('center_axis',(0.,1.,0.));
#638=DIRECTION('ref_axis',(-1.,0.,0.));
#639=DIRECTION('',(0.,0.,1.));
#640=DIRECTION('',(1.,0.,0.));
#641=DIRECTION('',(0.,0.,-1.));
#642=DIRECTION('',(-1.,0.,0.));
#643=DIRECTION('',(0.,0.,-1.));
#644=DIRECTION('',(1.,0.,0.));
#645=DIRECTION('',(0.,0.,1.));
#646=DIRECTION('',(-1.,0.,0.));
#647=DIRECTION('center_axis',(-1.,0.,0.));
#648=DIRECTION('ref_axis',(0.,0.,1.));
#649=DIRECTION('',(0.,1.,0.));
#650=DIRECTION('',(0.,1.,0.));
#651=DIRECTION('center_axis',(0.,0.,1.));
#652=DIRECTION('ref_axis',(1.,0.,0.));
#653=DIRECTION('',(0.,1.,0.));
#654=DIRECTION('center_axis',(1.,0.,0.));
#655=DIRECTION('ref_axis',(0.,0.,-1.));
#656=DIRECTION('',(0.,1.,0.));
#657=DIRECTION('center_axis',(0.,0.,-1.));
#658=DIRECTION('ref_axis',(-1.,0.,0.));
#659=DIRECTION('center_axis',(0.,-1.,0.));
#660=DIRECTION('ref_axis',(0.,0.,-1.));
#661=DIRECTION('',(-1.,0.,0.));
#662=DIRECTION('',(0.,0.,1.));
#663=DIRECTION('',(1.,0.,0.));
#664=DIRECTION('center_axis',(0.,0.,1.));
#665=DIRECTION('ref_axis',(-1.,0.,0.));
#666=DIRECTION('',(0.,-1.,0.));
#667=DIRECTION('',(0.,-1.,0.));
#668=DIRECTION('center_axis',(-1.,0.,0.));
#669=DIRECTION('ref_axis',(0.,0.,-1.));
#670=DIRECTION('',(0.,1.,0.));
#671=DIRECTION('center_axis',(1.,0.,0.));
#672=DIRECTION('ref_axis',(0.,0.,1.));
#673=DIRECTION('',(0.,-1.,0.));
#674=DIRECTION('center_axis',(0.,0.,-1.));
#675=DIRECTION('ref_axis',(1.,0.,0.));
#676=CARTESIAN_POINT('',(0.,0.,0.));
#677=CARTESIAN_POINT('Origin',(9.95578810870896,10.,47.6863568720963));
#678=CARTESIAN_POINT('',(-4.60222181899301,10.,44.3449296956645));
#679=CARTESIAN_POINT('Origin',(-4.60222181899301,10.,45.7949296956645));
#680=CARTESIAN_POINT('Origin',(9.95578810870896,2.7138577081681,-5.));
#681=CARTESIAN_POINT('',(-4.60222181899301,2.7138577081681,44.3449296956645));
#682=CARTESIAN_POINT('Origin',(-4.60222181899301,2.7138577081681,45.7949296956645));
#683=CARTESIAN_POINT('Origin',(9.95578810870896,2.7138577081681,-5.));
#684=CARTESIAN_POINT('',(-6.31613027379129,2.7138577081681,-5.));
#685=CARTESIAN_POINT('',(-3.4286789961138,2.7138577081681,-5.));
#686=CARTESIAN_POINT('Origin',(-4.87240463495255,2.7138577081681,-5.13474524021149));
#687=CARTESIAN_POINT('',(9.95578810870896,2.7138577081681,-5.));
#688=CARTESIAN_POINT('Origin',(9.95578810870896,10.,-5.));
#689=CARTESIAN_POINT('',(-3.4286789961138,10.,-5.));
#690=CARTESIAN_POINT('',(-3.4286789961138,5.5,-5.));
#691=CARTESIAN_POINT('',(-6.31613027379129,10.,-5.));
#692=CARTESIAN_POINT('',(-6.31613027379129,5.5,-5.));
#693=CARTESIAN_POINT('',(9.95578810870896,10.,-5.));
#694=CARTESIAN_POINT('Origin',(9.95578810870896,10.,-0.0213513267108834));
#695=CARTESIAN_POINT('Origin',(-4.87240463495255,10.,-5.13474524021149));
#696=CARTESIAN_POINT('Origin',(-10.044211891291,10.,-5.));
#697=CARTESIAN_POINT('',(-0.0442118912910416,10.,41.8786486732891));
#698=CARTESIAN_POINT('',(-10.044211891291,10.,41.8786486732891));
#699=CARTESIAN_POINT('',(-0.0442118912910416,10.,41.8786486732891));
#700=CARTESIAN_POINT('',(-10.044211891291,10.,-0.0213513267108834));
#701=CARTESIAN_POINT('',(-10.044211891291,10.,-7.51067566335544));
#702=CARTESIAN_POINT('',(-0.0442118912910416,10.,-0.0213513267108834));
#703=CARTESIAN_POINT('',(-0.0442118912910416,10.,-0.0213513267108834));
#704=CARTESIAN_POINT('',(-0.0442118912910416,10.,18.4393243366446));
#705=CARTESIAN_POINT('Origin',(-4.60222181899301,5.5,45.7949296956645));
#706=CARTESIAN_POINT('',(-4.60222181899301,0.,44.3449296956645));
#707=CARTESIAN_POINT('',(-4.60222181899301,5.5,44.3449296956645));
#708=CARTESIAN_POINT('Origin',(-4.60222181899301,0.,45.7949296956645));
#709=CARTESIAN_POINT('Origin',(38.155788108709,0.,20.9286486732891));
#710=CARTESIAN_POINT('',(86.355788108709,0.,51.8786486732891));
#711=CARTESIAN_POINT('',(-10.044211891291,0.,51.8786486732891));
#712=CARTESIAN_POINT('',(86.355788108709,0.,51.8786486732891));
#713=CARTESIAN_POINT('',(-10.044211891291,0.,-10.0213513267109));
#714=CARTESIAN_POINT('',(-10.044211891291,0.,51.8786486732891));
#715=CARTESIAN_POINT('',(86.355788108709,0.,-10.0213513267109));
#716=CARTESIAN_POINT('',(-10.044211891291,0.,-10.0213513267109));
#717=CARTESIAN_POINT('',(86.355788108709,0.,-10.0213513267109));
#718=CARTESIAN_POINT('',(80.6787312410663,0.,44.6164998327603));
#719=CARTESIAN_POINT('Origin',(80.6787312410663,0.,46.0664998327603));
#720=CARTESIAN_POINT('',(80.6787312410663,0.,-5.79429445906821));
#721=CARTESIAN_POINT('Origin',(80.6787312410663,0.,-4.34429445906821));
#722=CARTESIAN_POINT('',(-4.87240463495255,0.,-6.58474524021149));
#723=CARTESIAN_POINT('Origin',(-4.87240463495255,0.,-5.13474524021149));
#724=CARTESIAN_POINT('Origin',(38.155788108709,13.,20.9286486732891));
#725=CARTESIAN_POINT('',(-10.044211891291,13.,51.8786486732891));
#726=CARTESIAN_POINT('',(86.355788108709,13.,51.8786486732891));
#727=CARTESIAN_POINT('',(86.355788108709,13.,51.8786486732891));
#728=CARTESIAN_POINT('',(86.355788108709,13.,-10.0213513267109));
#729=CARTESIAN_POINT('',(86.355788108709,13.,-10.0213513267109));
#730=CARTESIAN_POINT('',(-10.044211891291,13.,-10.0213513267109));
#731=CARTESIAN_POINT('',(-10.044211891291,13.,-10.0213513267109));
#732=CARTESIAN_POINT('',(-10.044211891291,13.,51.8786486732891));
#733=CARTESIAN_POINT('',(-9.93040782818907,13.,-9.90754726360891));
#734=CARTESIAN_POINT('',(86.241984045607,13.,-9.90754726360891));
#735=CARTESIAN_POINT('',(62.198886077158,13.,-9.90754726360891));
#736=CARTESIAN_POINT('',(86.241984045607,13.,51.7648446101872));
#737=CARTESIAN_POINT('',(86.241984045607,13.,36.3467466417381));
#738=CARTESIAN_POINT('',(-9.93040782818907,13.,51.7648446101872));
#739=CARTESIAN_POINT('',(14.1126901402599,13.,51.7648446101872));
#740=CARTESIAN_POINT('',(-9.93040782818907,13.,5.5105507048401));
#741=CARTESIAN_POINT('Origin',(-10.044211891291,0.,51.8786486732891));
#742=CARTESIAN_POINT('',(86.355788108709,0.,51.8786486732891));
#743=CARTESIAN_POINT('',(-10.044211891291,0.,51.8786486732891));
#744=CARTESIAN_POINT('Origin',(86.355788108709,0.,51.8786486732891));
#745=CARTESIAN_POINT('',(86.355788108709,0.,-10.0213513267109));
#746=CARTESIAN_POINT('Origin',(86.355788108709,0.,-10.0213513267109));
#747=CARTESIAN_POINT('',(-10.044211891291,0.,-10.0213513267109));
#748=CARTESIAN_POINT('Origin',(-10.044211891291,0.,-10.0213513267109));
#749=CARTESIAN_POINT('',(-10.044211891291,3.,41.8786486732891));
#750=CARTESIAN_POINT('',(-10.044211891291,9.67846442704202,41.8786486732891));
#751=CARTESIAN_POINT('',(-10.044211891291,3.,-0.0213513267108834));
#752=CARTESIAN_POINT('',(-10.044211891291,3.,21.1359135546686));
#753=CARTESIAN_POINT('',(-10.044211891291,9.67846442704202,-0.0213513267108834));
#754=CARTESIAN_POINT('Origin',(-4.87240463495255,5.5,-5.13474524021149));
#755=CARTESIAN_POINT('',(-4.87240463495255,16.,-6.58474524021149));
#756=CARTESIAN_POINT('Origin',(-4.87240463495255,16.,-5.13474524021149));
#757=CARTESIAN_POINT('',(-4.87240463495255,5.5,-6.58474524021149));
#758=CARTESIAN_POINT('Origin',(80.6787312410663,5.5,-4.34429445906821));
#759=CARTESIAN_POINT('',(80.6787312410663,16.,-5.79429445906821));
#760=CARTESIAN_POINT('Origin',(80.6787312410663,16.,-4.34429445906821));
#761=CARTESIAN_POINT('',(80.6787312410663,5.5,-5.79429445906821));
#762=CARTESIAN_POINT('Origin',(-4.60222181899301,5.5,45.7949296956645));
#763=CARTESIAN_POINT('',(-4.60222181899301,16.,44.3449296956645));
#764=CARTESIAN_POINT('Origin',(-4.60222181899301,16.,45.7949296956645));
#765=CARTESIAN_POINT('',(-4.60222181899301,5.5,44.3449296956645));
#766=CARTESIAN_POINT('Origin',(80.6787312410663,5.5,46.0664998327603));
#767=CARTESIAN_POINT('',(80.6787312410663,16.,44.6164998327603));
#768=CARTESIAN_POINT('Origin',(80.6787312410663,16.,46.0664998327603));
#769=CARTESIAN_POINT('',(80.6787312410663,5.5,44.6164998327603));
#770=CARTESIAN_POINT('Origin',(38.155788108709,16.,20.9286486732891));
#771=CARTESIAN_POINT('',(-9.93040782818907,16.,-9.90754726360891));
#772=CARTESIAN_POINT('',(-9.93040782818907,16.,51.7648446101872));
#773=CARTESIAN_POINT('',(-9.93040782818907,16.,51.7648446101872));
#774=CARTESIAN_POINT('',(86.241984045607,16.,51.7648446101872));
#775=CARTESIAN_POINT('',(86.241984045607,16.,51.7648446101872));
#776=CARTESIAN_POINT('',(86.241984045607,16.,-9.90754726360891));
#777=CARTESIAN_POINT('',(86.241984045607,16.,-9.90754726360891));
#778=CARTESIAN_POINT('',(-9.93040782818907,16.,-9.90754726360891));
#779=CARTESIAN_POINT('',(-0.0442118912910416,16.,41.8786486732891));
#780=CARTESIAN_POINT('',(-0.0442118912910416,16.,-0.0213513267108834));
#781=CARTESIAN_POINT('',(-0.0442118912910416,16.,10.4536486732891));
#782=CARTESIAN_POINT('',(76.355788108709,16.,-0.0213513267108834));
#783=CARTESIAN_POINT('',(57.255788108709,16.,-0.0213513267108834));
#784=CARTESIAN_POINT('',(76.355788108709,16.,41.8786486732891));
#785=CARTESIAN_POINT('',(76.355788108709,16.,31.4036486732891));
#786=CARTESIAN_POINT('',(19.055788108709,16.,41.8786486732891));
#787=CARTESIAN_POINT('Origin',(-9.93040782818907,13.,-9.90754726360891));
#788=CARTESIAN_POINT('',(-9.93040782818907,13.,51.7648446101872));
#789=CARTESIAN_POINT('',(-9.93040782818907,13.,-9.90754726360891));
#790=CARTESIAN_POINT('Origin',(-9.93040782818907,13.,51.7648446101872));
#791=CARTESIAN_POINT('',(86.241984045607,13.,51.7648446101872));
#792=CARTESIAN_POINT('Origin',(86.241984045607,13.,51.7648446101872));
#793=CARTESIAN_POINT('',(86.241984045607,13.,-9.90754726360891));
#794=CARTESIAN_POINT('Origin',(86.241984045607,13.,-9.90754726360891));
#795=CARTESIAN_POINT('Origin',(38.155788108709,3.,20.9286486732891));
#796=CARTESIAN_POINT('',(76.355788108709,3.,41.8786486732891));
#797=CARTESIAN_POINT('',(9.95578810870896,3.,41.8786486732891));
#798=CARTESIAN_POINT('',(76.355788108709,3.,-0.0213513267108834));
#799=CARTESIAN_POINT('',(76.355788108709,3.,41.8786486732891));
#800=CARTESIAN_POINT('',(76.355788108709,3.,-0.0213513267108834));
#801=CARTESIAN_POINT('Origin',(76.355788108709,13.,41.8786486732891));
#802=CARTESIAN_POINT('',(-0.0442118912910416,13.,41.8786486732891));
#803=CARTESIAN_POINT('',(76.355788108709,13.,41.8786486732891));
#804=CARTESIAN_POINT('Origin',(-0.0442118912910416,13.,41.8786486732891));
#805=CARTESIAN_POINT('',(-0.0442118912910416,13.,-0.0213513267108834));
#806=CARTESIAN_POINT('Origin',(76.355788108709,13.,-0.0213513267108834));
#807=CARTESIAN_POINT('',(76.355788108709,13.,-0.0213513267108834));
#808=CARTESIAN_POINT('Origin',(-0.0442118912910416,13.,-0.0213513267108834));
#809=UNCERTAINTY_MEASURE_WITH_UNIT(LENGTH_MEASURE(0.01),#813,
'DISTANCE_ACCURACY_VALUE',
'Maximum model space distance between geometric entities at asserted c
onnectivities');
#810=UNCERTAINTY_MEASURE_WITH_UNIT(LENGTH_MEASURE(0.01),#813,
'DISTANCE_ACCURACY_VALUE',
'Maximum model space distance between geometric entities at asserted c
onnectivities');
#811=(
GEOMETRIC_REPRESENTATION_CONTEXT(3)
GLOBAL_UNCERTAINTY_ASSIGNED_CONTEXT((#809))
GLOBAL_UNIT_ASSIGNED_CONTEXT((#813,#815,#816))
REPRESENTATION_CONTEXT('','3D')
);
#812=(
GEOMETRIC_REPRESENTATION_CONTEXT(3)
GLOBAL_UNCERTAINTY_ASSIGNED_CONTEXT((#810))
GLOBAL_UNIT_ASSIGNED_CONTEXT((#813,#815,#816))
REPRESENTATION_CONTEXT('','3D')
);
#813=(
LENGTH_UNIT()
NAMED_UNIT(*)
SI_UNIT(.MILLI.,.METRE.)
);
#814=(
LENGTH_UNIT()
NAMED_UNIT(*)
SI_UNIT($,.METRE.)
);
#815=(
NAMED_UNIT(*)
PLANE_ANGLE_UNIT()
SI_UNIT($,.RADIAN.)
);
#816=(
NAMED_UNIT(*)
SI_UNIT($,.STERADIAN.)
SOLID_ANGLE_UNIT()
);
#817=SHAPE_DEFINITION_REPRESENTATION(#818,#819);
#818=PRODUCT_DEFINITION_SHAPE('',$,#821);
#819=SHAPE_REPRESENTATION('',(#505),#811);
#820=PRODUCT_DEFINITION_CONTEXT('part definition',#825,'design');
#821=PRODUCT_DEFINITION('2026-08-31-13-48-09-387','hackpad_case',#822,#820);
#822=PRODUCT_DEFINITION_FORMATION('',$,#827);
#823=PRODUCT_RELATED_PRODUCT_CATEGORY('hackpad_case','hackpad_case',(#827));
#824=APPLICATION_PROTOCOL_DEFINITION('international standard',
'automotive_design',2009,#825);
#825=APPLICATION_CONTEXT(
'Core Data for Automotive Mechanical Design Process');
#826=PRODUCT_CONTEXT('part definition',#825,'mechanical');
#827=PRODUCT('2026-08-31-13-48-09-387','hackpad_case',$,(#826));
#828=PRESENTATION_STYLE_ASSIGNMENT((#829));
#829=SURFACE_STYLE_USAGE(.BOTH.,#830);
#830=SURFACE_SIDE_STYLE('',(#831));
#831=SURFACE_STYLE_FILL_AREA(#832);
#832=FILL_AREA_STYLE('Steel - Satin',(#833));
#833=FILL_AREA_STYLE_COLOUR('Steel - Satin',#834);
#834=COLOUR_RGB('Steel - Satin',0.627450980392157,0.627450980392157,0.627450980392157);
ENDSEC;
END-ISO-10303-21;
